<svg width="520" height="132" viewBox="0 0 520 132" fill="none" xmlns="http://www.w3.org/2000/svg" role="img" aria-labelledby="title desc">
  <title id="title">myclean Logo</title>
  <desc id="desc">myclean Wortmarke mit blauem Reinigungs-Icon.</desc>
  <defs>
    <linearGradient id="bubble" x1="31" y1="21" x2="110" y2="114" gradientUnits="userSpaceOnUse">
      <stop stop-color="#38C7FF"/>
      <stop offset="0.48" stop-color="#168EEA"/>
      <stop offset="1" stop-color="#0F3D8C"/>
    </linearGradient>
    <linearGradient id="shine" x1="38" y1="23" x2="90" y2="74" gradientUnits="userSpaceOnUse">
      <stop stop-color="#FFFFFF" stop-opacity="0.9"/>
      <stop offset="1" stop-color="#FFFFFF" stop-opacity="0"/>
    </linearGradient>
    <filter id="soft-shadow" x="6" y="5" width="128" height="125" filterUnits="userSpaceOnUse" color-interpolation-filters="sRGB">
      <feDropShadow dx="0" dy="10" stdDeviation="9" flood-color="#0F3D8C" flood-opacity="0.18"/>
    </filter>
  </defs>
  <g filter="url(#soft-shadow)">
    <circle cx="59" cy="79" r="39" fill="url(#bubble)"/>
    <circle cx="98" cy="46" r="23" fill="url(#bubble)"/>
    <circle cx="70" cy="68" r="13.5" fill="#fff"/>
    <circle cx="95" cy="46" r="8" fill="#fff"/>
    <circle cx="88" cy="93" r="6.5" fill="#fff"/>
    <path d="M52 34C59.1 34 64.3 28.8 64.3 21.7C64.3 28.8 69.5 34 76.6 34C69.5 34 64.3 39.2 64.3 46.3C64.3 39.2 59.1 34 52 34Z" fill="url(#bubble)"/>
    <path d="M105 91C113 91 119 85 119 77C119 85 125 91 133 91C125 91 119 97 119 105C119 97 113 91 105 91Z" fill="url(#bubble)"/>
    <path d="M37 70C41 51 56.5 39.2 79 38.5" stroke="url(#shine)" stroke-width="6.5" stroke-linecap="round"/>
  </g>
  <text x="155" y="73" fill="#0B1220" font-family="Manrope, Inter, ui-sans-serif, system-ui, -apple-system, BlinkMacSystemFont, 'Segoe UI', sans-serif" font-size="52" font-weight="800" letter-spacing="-0.045em">myclean</text>
  <text x="158" y="102" fill="#1C5BBF" font-family="Manrope, Inter, ui-sans-serif, system-ui, -apple-system, BlinkMacSystemFont, 'Segoe UI', sans-serif" font-size="17" font-weight="700" letter-spacing="0.18em">SERVICE BERLIN</text>
</svg>
